<svg xmlns="http://www.w3.org/2000/svg" viewBox="0 0 1200 630" width="1200" height="630" role="img" aria-label="Building SaaS — RocketOpp">
<defs>
<linearGradient id="bg" x1="0" y1="0" x2="1" y2="1">
  <stop offset="0" stop-color="#fb7185"/><stop offset=".55" stop-color="#9f1239"/><stop offset="1" stop-color="#1b1023"/>
</linearGradient>
<radialGradient id="warm" cx=".18" cy=".12" r=".9">
  <stop offset="0" stop-color="#ff6b35" stop-opacity=".55"/><stop offset="1" stop-color="#ff6b35" stop-opacity="0"/>
</radialGradient>
<pattern id="grid" width="48" height="48" patternUnits="userSpaceOnUse">
  <path d="M48 0H0V48" fill="none" stroke="#fff" stroke-opacity=".07" stroke-width="1"/>
</pattern>
</defs>
<rect width="1200" height="630" fill="url(#bg)"/>
<rect width="1200" height="630" fill="url(#warm)"/>
<rect width="1200" height="630" fill="url(#grid)"/>
<circle cx="600" cy="292" r="118" fill="none" stroke="#fff" stroke-opacity=".22" stroke-dasharray="4 9"/><line x1="600" y1="292" x2="600.0" y2="174.0" stroke="#fff" stroke-opacity=".38" stroke-width="1.6"/><circle cx="600.0" cy="174.0" r="17" fill="#0b0b12" fill-opacity=".55" stroke="#fff" stroke-opacity=".7" stroke-width="1.8"/><line x1="600" y1="292" x2="702.2" y2="233.0" stroke="#fff" stroke-opacity=".38" stroke-width="1.6"/><circle cx="702.2" cy="233.0" r="17" fill="#0b0b12" fill-opacity=".55" stroke="#fff" stroke-opacity=".7" stroke-width="1.8"/><line x1="600" y1="292" x2="702.2" y2="351.0" stroke="#fff" stroke-opacity=".38" stroke-width="1.6"/><circle cx="702.2" cy="351.0" r="17" fill="#0b0b12" fill-opacity=".55" stroke="#fff" stroke-opacity=".7" stroke-width="1.8"/><line x1="600" y1="292" x2="600.0" y2="410.0" stroke="#fff" stroke-opacity=".38" stroke-width="1.6"/><circle cx="600.0" cy="410.0" r="17" fill="#0b0b12" fill-opacity=".55" stroke="#fff" stroke-opacity=".7" stroke-width="1.8"/><line x1="600" y1="292" x2="497.8" y2="351.0" stroke="#fff" stroke-opacity=".38" stroke-width="1.6"/><circle cx="497.8" cy="351.0" r="17" fill="#0b0b12" fill-opacity=".55" stroke="#fff" stroke-opacity=".7" stroke-width="1.8"/><line x1="600" y1="292" x2="497.8" y2="233.0" stroke="#fff" stroke-opacity=".38" stroke-width="1.6"/><circle cx="497.8" cy="233.0" r="17" fill="#0b0b12" fill-opacity=".55" stroke="#fff" stroke-opacity=".7" stroke-width="1.8"/><circle cx="600" cy="292" r="56" fill="#0b0b12" fill-opacity=".6" stroke="#fff" stroke-width="3"/><path d="M582 302 l12 -14 9 9 16 -20" fill="none" stroke="#fff" stroke-width="4.5" stroke-linecap="round" stroke-linejoin="round"/>
<text x="600" y="500" text-anchor="middle" fill="#fff" font-family="Inter,system-ui,sans-serif" font-size="46" font-weight="800" letter-spacing="-.6">Building SaaS</text>
<text x="600" y="542" text-anchor="middle" fill="#fff" fill-opacity=".8" font-family="Inter,system-ui,sans-serif" font-size="16" font-weight="700" letter-spacing="5">R O C K E T O P P</text>
<rect x="0" y="622" width="1200" height="8" fill="#ff6b35"/>
</svg>