<svg viewBox="0 0 24 24" xmlns="http://www.w3.org/2000/svg">
  <path fill="#EA4335" d="M14.548 7.875l1.562-2.704.082-.264c-1.848-1.332-4.116-2.12-6.582-2.12-3.24 0-6.132 1.476-8.052 3.792l2.064 1.812.06-.036c1.38-1.548 3.396-2.52 5.628-2.52 1.404 0 2.712.372 3.84 1.02l1.398.024z"/>
  <path fill="#4285F4" d="M21.756 9.66c-.42-1.656-1.236-3.132-2.352-4.332l-3.456 2.004c.936.912 1.596 2.1 1.824 3.432H14.7v3.6h6.84c-.096.828-.3 1.62-.6 2.364l3.456 2.004c1.02-1.968 1.596-4.188 1.596-6.552 0-.864-.084-1.716-.24-2.52h-.012z"/>
  <path fill="#34A853" d="M7.08 14.508a5.94 5.94 0 0 1-.84-3.06 5.94 5.94 0 0 1 .84-3.06l-2.844-2.22-.156.12A9.51 9.51 0 0 0 2.4 11.448a9.51 9.51 0 0 0 1.68 5.16l3-.024z"/>
  <path fill="#FBBC05" d="M11.988 17.472c-2.088 0-3.96-.864-5.328-2.244l-3 2.22c1.92 2.316 4.812 3.792 8.328 3.792 2.472 0 4.764-.804 6.624-2.172l-3.3-2.556c-.984.6-2.16.96-3.324.96z"/>
</svg>
