<svg viewBox="0 0 24 24" xmlns="http://www.w3.org/2000/svg">
  <path fill="#FF7A59" d="M18.164 7.93V5.084a2.198 2.198 0 0 0 1.267-1.984v-.066A2.198 2.198 0 0 0 17.233.836h-.066a2.198 2.198 0 0 0-2.198 2.198v.066c0 .907.55 1.685 1.335 2.018v2.817a6.295 6.295 0 0 0-3.18 1.628L5.886 4.073a2.76 2.76 0 0 0 .097-.714 2.772 2.772 0 1 0-2.772 2.772c.396 0 .77-.084 1.11-.236l7.182 5.39a6.268 6.268 0 0 0-.875 3.199c0 1.2.336 2.32.919 3.275l-2.38 2.38a1.932 1.932 0 0 0-.567-.088 1.958 1.958 0 1 0 1.958 1.958 1.93 1.93 0 0 0-.087-.567l2.342-2.342a6.324 6.324 0 1 0 5.351-9.17z"/>
</svg>
