<svg viewBox="0 0 24 24" xmlns="http://www.w3.org/2000/svg">
  <path fill="#00A1E0" d="M10.006 5.415a4.195 4.195 0 0 1 3.045-1.306c1.56 0 2.954.9 3.69 2.205.63-.3 1.35-.45 2.1-.45 2.85 0 5.159 2.34 5.159 5.22s-2.31 5.22-5.16 5.22c-.345 0-.69-.03-1.005-.12a3.87 3.87 0 0 1-3.42 2.055c-.57 0-1.125-.12-1.62-.36a4.455 4.455 0 0 1-3.84 2.205c-1.89 0-3.51-1.17-4.155-2.835a3.695 3.695 0 0 1-.75.075C1.8 17.324 0 15.524 0 13.274s1.8-4.05 4.05-4.05c.33 0 .66.03.975.105a4.89 4.89 0 0 1 4.98-3.915z"/>
</svg>
